<?xml version="1.0" encoding="UTF-8"?>
<svg version="1.1" xmlns="http://www.w3.org/2000/svg" width="32" height="35">
<path d="M0 0 C10.56 0 21.12 0 32 0 C32 11.55 32 23.1 32 35 C21.44 35 10.88 35 0 35 C0 23.45 0 11.9 0 0 Z " fill="#F77473" transform="translate(0,0)"/>
<path d="M0 0 C10.56 0 21.12 0 32 0 C32 11.55 32 23.1 32 35 C21.44 35 10.88 35 0 35 C0 23.45 0 11.9 0 0 Z M13 3 C12.67 4.98 12.34 6.96 12 9 C9.69 9 7.38 9 5 9 C5 10.32 5 11.64 5 13 C4.34 13 3.68 13 3 13 C2.80569145 15.6246601 2.61926762 18.24946765 2.4375 20.875 C2.35338867 21.99455078 2.35338867 21.99455078 2.26757812 23.13671875 C1.86611075 27.19061542 1.86611075 27.19061542 3 31 C4.32 31 5.64 31 7 31 C7 28.36 7 25.72 7 23 C7.99 23 8.98 23 10 23 C10 26.3 10 29.6 10 33 C12.12472576 33.05386629 14.24983652 33.09273071 16.375 33.125 C18.15003906 33.15980469 18.15003906 33.15980469 19.9609375 33.1953125 C23.11153817 33.32866229 23.11153817 33.32866229 25 31 C26.32 31 27.64 31 29 31 C29.02722517 28.79173622 29.04649729 26.58337362 29.0625 24.375 C29.07410156 23.14523438 29.08570312 21.91546875 29.09765625 20.6484375 C29.00863924 17.32276209 28.63686087 14.25952412 28 11 C27.34 11 26.68 11 26 11 C26 10.34 26 9.68 26 9 C24.35 9 22.7 9 21 9 C20.67 7.02 20.34 5.04 20 3 C17.69 3 15.38 3 13 3 Z " fill="#FDFBFB" transform="translate(0,0)"/>
<path d="M0 0 C0.33 0 0.66 0 1 0 C1 4.62 1 9.24 1 14 C-5.34188464 16.28487759 -11.24579268 16.23299776 -17.9375 16.125 C-19.00291016 16.11597656 -20.06832031 16.10695313 -21.16601562 16.09765625 C-23.77758034 16.07423414 -26.38866937 16.04143452 -29 16 C-29 14.68 -29 13.36 -29 12 C-26.69 12 -24.38 12 -22 12 C-22 9.36 -22 6.72 -22 4 C-21.01 4 -20.02 4 -19 4 C-19 7.3 -19 10.6 -19 14 C-14.71 14 -10.42 14 -6 14 C-5.67 11.36 -5.34 8.72 -5 6 C-4.67 6 -4.34 6 -4 6 C-4 7.98 -4 9.96 -4 12 C-2.68 12 -1.36 12 0 12 C0 8.04 0 4.08 0 0 Z " fill="#F9EDED" transform="translate(29,19)"/>
<path d="M0 0 C0.99 0 1.98 0 3 0 C3.33 3.3 3.66 6.6 4 10 C4.66 10 5.32 10 6 10 C6 11.32 6 12.64 6 14 C8.31 14 10.62 14 13 14 C13 11.36 13 8.72 13 6 C13.66 6 14.32 6 15 6 C15 9.3 15 12.6 15 16 C10.71 16 6.42 16 2 16 C2 12.7 2 9.4 2 6 C1.01 6 0.02 6 -1 6 C-0.67 4.02 -0.34 2.04 0 0 Z " fill="#C75E61" transform="translate(8,17)"/>
<path d="M0 0 C1.98 0 3.96 0 6 0 C6 0.66 6 1.32 6 2 C5.34 2 4.68 2 4 2 C3.67 6.62 3.34 11.24 3 16 C2.01 16 1.02 16 0 16 C0 10.72 0 5.44 0 0 Z " fill="#EA696A" transform="translate(4,15)"/>
<path d="M0 0 C0.66 0 1.32 0 2 0 C2 3.96 2 7.92 2 12 C0.02 12 -1.96 12 -4 12 C-4 9.36 -4 6.72 -4 4 C-2.35 4 -0.7 4 1 4 C0.67 2.68 0.34 1.36 0 0 Z " fill="#ED8180" transform="translate(27,19)"/>
<path d="M0 0 C1.98 0 3.96 0 6 0 C4.38405168 2.04119788 2.7143618 4.04072937 1 6 C0.34 6 -0.32 6 -1 6 C-1 11.28 -1 16.56 -1 22 C-1.66 21.34 -2.32 20.68 -3 20 C-2.98252073 17.24410223 -2.86136729 14.61213324 -2.625 11.875 C-2.56828125 11.12089844 -2.5115625 10.36679687 -2.453125 9.58984375 C-2.3115535 7.72581904 -2.15700041 5.86278863 -2 4 C-1.34 4 -0.68 4 0 4 C0 2.68 0 1.36 0 0 Z " fill="#E8A3A2" transform="translate(5,9)"/>
<path d="M0 0 C0.99 0 1.98 0 3 0 C4.3271261 3.9813783 4.06915913 7.85045227 4 12 C3.34 12 2.68 12 2 12 C2 10.02 2 8.04 2 6 C1.01 6 0.02 6 -1 6 C-0.67 4.02 -0.34 2.04 0 0 Z " fill="#D75F63" transform="translate(8,17)"/>
<path d="M0 0 C0.99 0 1.98 0 3 0 C3 3.3 3 6.6 3 10 C2.67 9.34 2.34 8.68 2 8 C1.34 8 0.68 8 0 8 C0 5.36 0 2.72 0 0 Z " fill="#E8BEC0" transform="translate(7,23)"/>
<path d="M0 0 C0.99 0 1.98 0 3 0 C3 1.32 3 2.64 3 4 C3.66 4 4.32 4 5 4 C5 4.66 5 5.32 5 6 C3.35 6 1.7 6 0 6 C0 4.02 0 2.04 0 0 Z " fill="#D05B5E" transform="translate(23,17)"/>
<path d="M0 0 C1.98 0 3.96 0 6 0 C4.38405168 2.04119788 2.7143618 4.04072937 1 6 C0.34 6 -0.32 6 -1 6 C-0.67 4.02 -0.34 2.04 0 0 Z " fill="#E38E8D" transform="translate(5,9)"/>
</svg>
