<?xml version="1.0" standalone="no"?>
<!DOCTYPE svg PUBLIC "-//W3C//DTD SVG 20010904//EN"
 "http://www.w3.org/TR/2001/REC-SVG-20010904/DTD/svg10.dtd">
<svg version="1.0" xmlns="http://www.w3.org/2000/svg"
 width="38.000000pt" height="34.000000pt" viewBox="0 0 38.000000 34.000000"
 preserveAspectRatio="xMidYMid meet">

<g transform="translate(0.000000,34.000000) scale(0.100000,-0.100000)"
fill="#000000" stroke="none">
<path d="M123 304 c-27 -19 -19 -44 13 -44 13 0 24 -4 24 -10 0 -5 5 -10 11
-10 29 0 73 -85 52 -99 -18 -12 -33 -49 -33 -85 0 -32 3 -36 25 -36 14 0 25 5
25 10 0 6 7 10 15 10 20 0 65 45 65 65 0 8 5 15 10 15 6 0 10 23 10 50 0 28
-4 50 -10 50 -5 0 -10 7 -10 15 0 20 -45 65 -65 65 -8 0 -15 5 -15 10 0 16
-93 11 -117 -6z"/>
<path d="M50 154 c0 -26 6 -52 14 -60 8 -7 16 -19 18 -26 7 -21 38 17 38 46 0
16 6 26 15 26 8 0 15 5 15 10 0 6 -6 10 -13 10 -7 0 -19 9 -27 20 -8 11 -25
20 -37 20 -21 0 -23 -5 -23 -46z"/>
<path d="M183 165 c-17 -19 -16 -25 2 -25 8 0 15 9 15 20 0 23 -1 24 -17 5z"/>
<path d="M132 50 c0 -19 2 -27 5 -17 2 9 2 25 0 35 -3 9 -5 1 -5 -18z"/>
</g>
</svg>
